<svg width="120" height="120" fill="none" xmlns="http://www.w3.org/2000/svg"><g filter="url(#filter0_dd)"><path d="M105 60c0 24.853-20.147 45-45 45S15 84.853 15 60s20.147-45 45-45 45 20.147 45 45z" fill="#1493FF"/></g><path d="M75.506 39.75H44.494c-2.615 0-4.744 2.07-4.744 4.635v30.42c0 2.565 2.13 4.635 4.744 4.635h26.244l-1.226-4.162 2.962 2.677 2.8 2.52 4.976 4.275V44.385c0-2.565-2.13-4.635-4.744-4.635zm-8.933 29.385s-.834-.968-1.528-1.823c3.032-.832 4.189-2.677 4.189-2.677a13.391 13.391 0 01-2.661 1.328 15.563 15.563 0 01-3.356.967c-2.222.405-4.258.292-5.994-.023a19.846 19.846 0 01-3.402-.967 13.876 13.876 0 01-1.69-.765c-.069-.045-.138-.067-.208-.112a.319.319 0 01-.092-.068 7.95 7.95 0 01-.648-.383s1.11 1.8 4.05 2.656c-.695.855-1.551 1.867-1.551 1.867-5.115-.157-7.059-3.42-7.059-3.42 0-7.245 3.333-13.118 3.333-13.118 3.333-2.43 6.503-2.362 6.503-2.362l.232.27c-4.166 1.17-6.087 2.947-6.087 2.947s.51-.27 1.365-.652c2.477-1.057 4.444-1.35 5.254-1.417.139-.023.254-.046.393-.046a20.137 20.137 0 014.675-.045c2.199.248 4.56.878 6.966 2.16 0 0-1.828-1.687-5.762-2.857l.324-.36s3.17-.068 6.503 2.362c0 0 3.332 5.873 3.332 13.118 0 0-1.967 3.263-7.081 3.42zM55.81 58.627c-1.319 0-2.36 1.125-2.36 2.498 0 1.373 1.064 2.498 2.36 2.498 1.32 0 2.36-1.125 2.36-2.498.024-1.373-1.04-2.498-2.36-2.498zm8.447 0c-1.319 0-2.36 1.125-2.36 2.498 0 1.373 1.064 2.498 2.36 2.498 1.32 0 2.36-1.125 2.36-2.498 0-1.373-1.04-2.498-2.36-2.498z" fill="#fff"/><defs><filter id="filter0_dd" x="0" y="0" width="120" height="120" filterUnits="userSpaceOnUse" color-interpolation-filters="sRGB"><feFlood flood-opacity="0" result="BackgroundImageFix"/><feColorMatrix in="SourceAlpha" values="0 0 0 0 0 0 0 0 0 0 0 0 0 0 0 0 0 0 127 0"/><feOffset/><feGaussianBlur stdDeviation="7.5"/><feColorMatrix values="0 0 0 0 0.0784314 0 0 0 0 0.576471 0 0 0 0 1 0 0 0 0.5 0"/><feBlend in2="BackgroundImageFix" result="effect1_dropShadow"/><feColorMatrix in="SourceAlpha" values="0 0 0 0 0 0 0 0 0 0 0 0 0 0 0 0 0 0 127 0"/><feOffset/><feGaussianBlur stdDeviation="7.5"/><feColorMatrix values="0 0 0 0 0.0784314 0 0 0 0 0.576471 0 0 0 0 1 0 0 0 0.5 0"/><feBlend in2="effect1_dropShadow" result="effect2_dropShadow"/><feBlend in="SourceGraphic" in2="effect2_dropShadow" result="shape"/></filter></defs></svg>