<svg width="120" height="120" fill="none" xmlns="http://www.w3.org/2000/svg"><g filter="url(#filter0_dd)"><circle cx="60" cy="60" r="45" fill="#1493FF"/></g><path d="M36.04 60.842l10.345 3.857 4.033 12.976c.175.877 1.227 1.052 1.929.526l5.786-4.734c.526-.526 1.403-.526 2.104 0l10.346 7.54c.702.526 1.754.175 1.929-.701l7.715-36.824c.176-.877-.701-1.754-1.578-1.403L36.04 58.562c-1.052.35-1.052 1.929 0 2.28zm13.852 1.928l20.34-12.45c.351-.175.702.351.351.527L53.925 66.453c-.526.526-1.052 1.227-1.052 2.104l-.526 4.209c0 .526-.877.7-1.052 0L49.19 65.05c-.526-.877-.175-1.929.702-2.28z" fill="#fff"/><defs><filter id="filter0_dd" x="0" y="0" width="120" height="120" filterUnits="userSpaceOnUse" color-interpolation-filters="sRGB"><feFlood flood-opacity="0" result="BackgroundImageFix"/><feColorMatrix in="SourceAlpha" values="0 0 0 0 0 0 0 0 0 0 0 0 0 0 0 0 0 0 127 0"/><feOffset/><feGaussianBlur stdDeviation="7.5"/><feColorMatrix values="0 0 0 0 0.0784314 0 0 0 0 0.576471 0 0 0 0 1 0 0 0 0.5 0"/><feBlend in2="BackgroundImageFix" result="effect1_dropShadow"/><feColorMatrix in="SourceAlpha" values="0 0 0 0 0 0 0 0 0 0 0 0 0 0 0 0 0 0 127 0"/><feOffset/><feGaussianBlur stdDeviation="7.5"/><feColorMatrix values="0 0 0 0 0.0784314 0 0 0 0 0.576471 0 0 0 0 1 0 0 0 0.5 0"/><feBlend in2="effect1_dropShadow" result="effect2_dropShadow"/><feBlend in="SourceGraphic" in2="effect2_dropShadow" result="shape"/></filter></defs></svg>