<svg width="120" height="120" fill="none" xmlns="http://www.w3.org/2000/svg"><g filter="url(#filter0_dd)"><circle cx="60" cy="60" r="45" fill="#1493FF"/></g><path d="M82.063 71.51c0-.187-.186-.187-.186-.374-.748-1.495-2.429-3.363-4.67-5.417-1.121-.934-1.682-1.682-2.055-2.055-.56-.747-.56-1.308-.374-2.055.187-.56.934-1.495 2.242-3.176.747-.934 1.12-1.494 1.681-2.054 2.802-3.736 4.11-6.165 3.736-7.286l-.187-.187c-.187-.186-.373-.373-.747-.373-.374-.187-.934-.187-1.494 0h-8.406l-.187.187c-.187.187-.187.187-.187.373-.747 2.055-1.681 3.736-2.615 5.604-.56.934-1.121 1.868-1.681 2.615-.56.748-.935 1.308-1.308 1.682-.374.373-.747.56-.934.934-.187.187-.56.373-.56.187-.187 0-.374 0-.374-.187l-.56-.56c-.187-.188-.187-.561-.374-.935v-9.338c0-.188-.187-.561-.187-.748l-.56-.56c-.187-.187-.56-.187-.748-.374-.934-.187-2.054-.373-3.362-.373-2.989 0-5.044.186-5.79.56-.374.187-.748.373-.935.747-.373.374-.373.56-.187.56.934.187 1.682.56 2.055 1.121l.187.374c.187.187.187.56.374 1.12.186.561.186 1.121.186 1.869v2.989c0 .934-.186 1.494-.186 2.054 0 .56-.187.934-.374 1.121-.187.374-.187.56-.374.56 0 0 0 .187-.186.187-.187 0-.374.187-.748.187-.187 0-.56-.187-.747-.373a2.251 2.251 0 01-.934-.934c-.373-.374-.747-.934-1.12-1.682-.374-.747-.935-1.494-1.308-2.615l-.374-.747a26.41 26.41 0 01-.934-2.055c-.373-.934-.747-1.681-1.12-2.615a2.579 2.579 0 00-.561-.747h-.187s-.187-.187-.373-.187c-.187 0-.374-.187-.56-.187h-6.726c-.747 0-1.12.187-1.307.374l-.187.187v.373c0 .187 0 .374.187.747.934 2.242 2.054 4.483 3.175 6.725 1.121 2.055 2.242 3.923 2.99 5.23.933 1.308 1.68 2.616 2.614 3.737.934 1.12 1.495 1.868 1.681 2.241l.748.747.56.56c.374.374.934.935 1.681 1.495.748.56 1.681 1.121 2.615 1.681.934.56 2.055.934 3.176 1.308 1.308.374 2.429.56 3.55.374h2.801c.56 0 .934-.187 1.308-.56l.187-.188c0-.186.187-.186.187-.373v-.747c0-.748 0-1.308.186-1.868.187-.56.187-.934.374-1.308s.374-.56.56-.747l.374-.374h.187c.373-.187.934 0 1.308.374.56.373 1.12.934 1.494 1.494.374.56.934 1.121 1.681 1.868.747.748 1.308 1.308 1.681 1.495l.56.373c.374.187.748.374 1.308.56.56.188.934.188 1.308.188l6.351-.187c.56 0 1.121-.187 1.495-.374.373-.187.56-.374.56-.747v-.747c-.374-.374-.374-.56-.374-.748z" fill="#fff"/><defs><filter id="filter0_dd" x="0" y="0" width="120" height="120" filterUnits="userSpaceOnUse" color-interpolation-filters="sRGB"><feFlood flood-opacity="0" result="BackgroundImageFix"/><feColorMatrix in="SourceAlpha" values="0 0 0 0 0 0 0 0 0 0 0 0 0 0 0 0 0 0 127 0"/><feOffset/><feGaussianBlur stdDeviation="7.5"/><feColorMatrix values="0 0 0 0 0.0784314 0 0 0 0 0.576471 0 0 0 0 1 0 0 0 0.5 0"/><feBlend in2="BackgroundImageFix" result="effect1_dropShadow"/><feColorMatrix in="SourceAlpha" values="0 0 0 0 0 0 0 0 0 0 0 0 0 0 0 0 0 0 127 0"/><feOffset/><feGaussianBlur stdDeviation="7.5"/><feColorMatrix values="0 0 0 0 0.0784314 0 0 0 0 0.576471 0 0 0 0 1 0 0 0 0.5 0"/><feBlend in2="effect1_dropShadow" result="effect2_dropShadow"/><feBlend in="SourceGraphic" in2="effect2_dropShadow" result="shape"/></filter></defs></svg>