<svg width="120" height="120" fill="none" xmlns="http://www.w3.org/2000/svg"><g filter="url(#filter0_dd)"><circle cx="60" cy="60" r="45" fill="#1493FF"/></g><path d="M79.605 57.554c0-.872-.146-1.89-.146-3.054-.145-1.164-.29-2.327-.436-3.346-.291-1.163-.728-2.036-1.6-2.763-.728-.727-1.746-1.164-2.764-1.31-3.345-.436-8.29-.581-14.982-.581-6.69 0-11.782.145-14.982.582-1.018.145-2.036.582-2.763 1.309-.727.727-1.31 1.6-1.6 2.764-.291 1.018-.437 2.036-.437 3.345-.145 1.164-.145 2.182-.145 3.054v6.692c0 .872.145 1.89.145 3.054.146 1.164.291 2.327.437 3.345.29 1.164.727 2.037 1.6 2.764.727.727 1.745 1.164 2.763 1.31 3.346.436 8.291.581 14.982.581 6.691 0 11.782-.145 14.982-.582 1.018-.145 2.036-.582 2.764-1.309.727-.727 1.309-1.6 1.6-2.764.29-1.018.436-2.036.436-3.345.146-1.164.145-2.182.145-3.054v-6.692zm-12.219 4.51l-11.49 7.127c-.146.145-.437.29-.728.29-.29 0-.436 0-.727-.145-.436-.29-.727-.727-.727-1.309v-14.4c0-.582.29-1.018.727-1.309a1.321 1.321 0 011.454 0l11.491 7.127c.437.291.728.728.728 1.164 0 .436-.291 1.164-.728 1.455z" fill="#fff"/><defs><filter id="filter0_dd" x="0" y="0" width="120" height="120" filterUnits="userSpaceOnUse" color-interpolation-filters="sRGB"><feFlood flood-opacity="0" result="BackgroundImageFix"/><feColorMatrix in="SourceAlpha" values="0 0 0 0 0 0 0 0 0 0 0 0 0 0 0 0 0 0 127 0"/><feOffset/><feGaussianBlur stdDeviation="7.5"/><feColorMatrix values="0 0 0 0 0.0784314 0 0 0 0 0.576471 0 0 0 0 1 0 0 0 0.5 0"/><feBlend in2="BackgroundImageFix" result="effect1_dropShadow"/><feColorMatrix in="SourceAlpha" values="0 0 0 0 0 0 0 0 0 0 0 0 0 0 0 0 0 0 127 0"/><feOffset/><feGaussianBlur stdDeviation="7.5"/><feColorMatrix values="0 0 0 0 0.0784314 0 0 0 0 0.576471 0 0 0 0 1 0 0 0 0.5 0"/><feBlend in2="effect1_dropShadow" result="effect2_dropShadow"/><feBlend in="SourceGraphic" in2="effect2_dropShadow" result="shape"/></filter></defs></svg>