<svg width="189" height="189" fill="none" xmlns="http://www.w3.org/2000/svg"><g filter="url(#filter0_dd)" stroke="#1493FF" stroke-width="2" stroke-linecap="round" stroke-linejoin="round"><path d="M94.5 94.5c35.881 0 64.969-15.866 64.969-35.438 0-19.571-29.088-35.437-64.969-35.437-35.881 0-64.969 15.866-64.969 35.438C29.531 78.633 58.62 94.5 94.5 94.5z"/><path d="M29.531 59.063V94.5c0 19.572 29.088 35.438 64.969 35.438 35.881 0 64.969-15.866 64.969-35.438V59.062"/><path d="M29.531 94.5v35.438c0 19.571 29.088 35.437 64.969 35.437 35.881 0 64.969-15.866 64.969-35.437V94.5"/></g><defs><filter id="filter0_dd" x="13.531" y="7.625" width="161.938" height="173.75" filterUnits="userSpaceOnUse" color-interpolation-filters="sRGB"><feFlood flood-opacity="0" result="BackgroundImageFix"/><feColorMatrix in="SourceAlpha" values="0 0 0 0 0 0 0 0 0 0 0 0 0 0 0 0 0 0 127 0"/><feOffset/><feGaussianBlur stdDeviation="7.5"/><feColorMatrix values="0 0 0 0 0.0784314 0 0 0 0 0.576471 0 0 0 0 1 0 0 0 0.5 0"/><feBlend in2="BackgroundImageFix" result="effect1_dropShadow"/><feColorMatrix in="SourceAlpha" values="0 0 0 0 0 0 0 0 0 0 0 0 0 0 0 0 0 0 127 0"/><feOffset/><feGaussianBlur stdDeviation="7.5"/><feColorMatrix values="0 0 0 0 0.0784314 0 0 0 0 0.576471 0 0 0 0 1 0 0 0 0.5 0"/><feBlend in2="effect1_dropShadow" result="effect2_dropShadow"/><feBlend in="SourceGraphic" in2="effect2_dropShadow" result="shape"/></filter></defs></svg>