<svg width="216" height="216" fill="none" xmlns="http://www.w3.org/2000/svg"><g filter="url(#filter0_dd)" stroke="#1493FF" stroke-width="2" stroke-linecap="round" stroke-linejoin="round"><path d="M64.293 111.545l64.125-77.625 53.831-.17-.17 53.83-77.625 64.125m-20.079-20.08L135 81"/><path d="M69.309 166.603l-25.263 25.263a6.743 6.743 0 01-4.773 1.977 6.742 6.742 0 01-4.773-1.977l-10.365-10.365a6.741 6.741 0 01-1.977-4.773 6.752 6.752 0 011.977-4.773l25.263-25.262a6.752 6.752 0 000-9.546l-17.624-17.624a6.75 6.75 0 010-9.546l10.704-10.704a6.75 6.75 0 019.546 0l64.704 64.704a6.751 6.751 0 010 9.546l-10.704 10.704a6.747 6.747 0 01-9.546 0l-17.623-17.624a6.754 6.754 0 00-9.546 0v0z"/></g><defs><filter id="filter0_dd" x="6.158" y="17.75" width="192.091" height="192.093" filterUnits="userSpaceOnUse" color-interpolation-filters="sRGB"><feFlood flood-opacity="0" result="BackgroundImageFix"/><feColorMatrix in="SourceAlpha" values="0 0 0 0 0 0 0 0 0 0 0 0 0 0 0 0 0 0 127 0"/><feOffset/><feGaussianBlur stdDeviation="7.5"/><feColorMatrix values="0 0 0 0 0.0784314 0 0 0 0 0.576471 0 0 0 0 1 0 0 0 0.5 0"/><feBlend in2="BackgroundImageFix" result="effect1_dropShadow"/><feColorMatrix in="SourceAlpha" values="0 0 0 0 0 0 0 0 0 0 0 0 0 0 0 0 0 0 127 0"/><feOffset/><feGaussianBlur stdDeviation="7.5"/><feColorMatrix values="0 0 0 0 0.0784314 0 0 0 0 0.576471 0 0 0 0 1 0 0 0 0.5 0"/><feBlend in2="effect1_dropShadow" result="effect2_dropShadow"/><feBlend in="SourceGraphic" in2="effect2_dropShadow" result="shape"/></filter></defs></svg>